<svg width="320" height="40" viewBox="0 0 320 40" fill="none" xmlns="http://www.w3.org/2000/svg">
<mask id="mask0_109_934" style="mask-type:luminance" maskUnits="userSpaceOnUse" x="0" y="0" width="320" height="40">
<path d="M320 0H0V40H320V0Z" fill="white"/>
</mask>
<g mask="url(#mask0_109_934)">
<mask id="mask1_109_934" style="mask-type:luminance" maskUnits="userSpaceOnUse" x="0" y="0" width="320" height="40">
<path d="M320 0H0V40H320V0Z" fill="white"/>
</mask>
<g mask="url(#mask1_109_934)">
<path d="M54.5767 18.6433C54.5767 27.9006 59.9089 33.6254 69.0674 33.6254C77.493 33.6254 83.273 28.8344 83.273 20.0238V17.3035H69.1488V22.46H76.3941C76.1091 25.9111 73.4226 28.1847 69.2302 28.1847C64.6306 28.1847 61.537 25.5456 61.537 20.5517V16.5727C61.537 12.0253 64.2235 8.9802 68.9453 8.9802C72.3237 8.9802 74.7252 10.6043 75.4578 13.1622H82.2962C81.5227 7.23433 76.2312 3.25537 69.0267 3.25537C60.3974 3.25537 54.5767 8.9396 54.5767 18.6433Z" fill="black"/>
<path d="M54.5767 18.6433C54.5767 27.9006 59.9089 33.6254 69.0674 33.6254C77.493 33.6254 83.273 28.8344 83.273 20.0238V17.3035H69.1488V22.46H76.3941C76.1091 25.9111 73.4226 28.1847 69.2302 28.1847C64.6306 28.1847 61.537 25.5456 61.537 20.5517V16.5727C61.537 12.0253 64.2235 8.9802 68.9453 8.9802C72.3237 8.9802 74.7252 10.6043 75.4578 13.1622H82.2962C81.5227 7.23433 76.2312 3.25537 69.0267 3.25537C60.3974 3.25537 54.5767 8.9396 54.5767 18.6433Z" fill="black"/>
<path d="M85.2027 9.06186H91.3897V3.01221H85.2027V9.06186ZM85.2027 33.2198H91.3897V11.4574H85.2027V33.2198Z" fill="black"/>
<path d="M85.2027 9.06186H91.3897V3.01221H85.2027V9.06186ZM85.2027 33.2198H91.3897V11.4574H85.2027V33.2198Z" fill="black"/>
<path d="M103.861 16.4508H108.175V11.4568H103.861V4.63574H97.6736V11.4568H93.8067V16.4508H97.6736V28.4283C97.6736 31.311 98.8947 33.2193 102.558 33.2193H108.175V28.3471H103.861V16.4508Z" fill="black"/>
<path d="M103.861 16.4508H108.175V11.4568H103.861V4.63574H97.6736V11.4568H93.8067V16.4508H97.6736V28.4283C97.6736 31.311 98.8947 33.2193 102.558 33.2193H108.175V28.3471H103.861V16.4508Z" fill="black"/>
<path d="M110.928 33.2197H117.522V20.755H130.914V33.2197H137.507V3.62109H130.914V15.558H117.522V3.62109H110.928V33.2197Z" fill="black"/>
<path d="M110.928 33.2197H117.522V20.755H130.914V33.2197H137.507V3.62109H130.914V15.558H117.522V3.62109H110.928V33.2197Z" fill="black"/>
<path d="M161.426 11.4575H155.24V22.9478C155.24 26.2365 153.449 28.5914 150.518 28.5914C148.076 28.5914 146.692 27.1297 146.692 24.0846V11.4575H140.465V25.0591C140.465 30.2561 142.865 33.626 147.75 33.626C151.21 33.626 153.571 31.9614 154.833 29.241H155.199L156.013 33.22H161.426V11.4575Z" fill="black"/>
<path d="M161.426 11.4575H155.24V22.9478C155.24 26.2365 153.449 28.5914 150.518 28.5914C148.076 28.5914 146.692 27.1297 146.692 24.0846V11.4575H140.465V25.0591C140.465 30.2561 142.865 33.626 147.75 33.626C151.21 33.626 153.571 31.9614 154.833 29.241H155.199L156.013 33.22H161.426V11.4575Z" fill="black"/>
<path d="M164.431 33.2198H169.845L170.618 29.3221H170.985C172.247 32.1236 175.055 33.6259 178.19 33.6259C183.806 33.6259 187.063 29.4438 187.063 22.3791C187.063 15.2333 183.726 11.0513 178.068 11.0513C174.567 11.0513 172.002 12.8378 170.985 15.4363H170.618V3.01221H164.431V33.2198ZM170.618 23.313V21.4453C170.618 18.1972 172.694 16.0859 175.91 16.0859C178.841 16.0859 180.754 17.5883 180.754 20.6333V24.125C180.754 26.8048 179.207 28.6318 175.951 28.6318C172.654 28.6318 170.618 26.48 170.618 23.313Z" fill="black"/>
<path d="M164.431 33.2198H169.845L170.618 29.3221H170.985C172.247 32.1236 175.055 33.6259 178.19 33.6259C183.806 33.6259 187.063 29.4438 187.063 22.3791C187.063 15.2333 183.726 11.0513 178.068 11.0513C174.567 11.0513 172.002 12.8378 170.985 15.4363H170.618V3.01221H164.431V33.2198ZM170.618 23.313V21.4453C170.618 18.1972 172.694 16.0859 175.91 16.0859C178.841 16.0859 180.754 17.5883 180.754 20.6333V24.125C180.754 26.8048 179.207 28.6318 175.951 28.6318C172.654 28.6318 170.618 26.48 170.618 23.313Z" fill="black"/>
<path d="M209.193 33.6255C216.642 33.6255 221.892 29.4841 222.788 22.9472H217.212C216.398 26.642 213.345 28.9156 209.274 28.9156C204.227 28.9156 201.011 25.6269 201.011 20.9577V16.1262C201.011 11.0509 204.349 7.96523 209.356 7.96523C213.833 7.96523 216.561 10.3607 217.212 13.893H222.788C222.138 7.4374 217.049 3.21484 209.519 3.21484C200.604 3.21484 195.395 8.98027 195.395 18.481C195.395 27.9006 200.524 33.6255 209.193 33.6255Z" fill="black"/>
<path d="M209.193 33.6255C216.642 33.6255 221.892 29.4841 222.788 22.9472H217.212C216.398 26.642 213.345 28.9156 209.274 28.9156C204.227 28.9156 201.011 25.6269 201.011 20.9577V16.1262C201.011 11.0509 204.349 7.96523 209.356 7.96523C213.833 7.96523 216.561 10.3607 217.212 13.893H222.788C222.138 7.4374 217.049 3.21484 209.519 3.21484C200.604 3.21484 195.395 8.98027 195.395 18.481C195.395 27.9006 200.524 33.6255 209.193 33.6255Z" fill="black"/>
<path d="M224.292 22.4604C224.292 29.3627 228.443 33.6258 234.874 33.6258C241.591 33.6258 245.499 29.1597 245.499 22.4604C245.499 15.3145 241.102 11.2949 234.874 11.2949C228.443 11.2949 224.292 15.5175 224.292 22.4604ZM229.42 24.2063V20.8364C229.42 17.507 231.577 15.4362 234.874 15.4362C238.09 15.4362 240.329 17.4663 240.329 20.8364V24.2063C240.329 27.6574 238.049 29.4844 234.874 29.4844C231.781 29.4844 229.42 27.698 229.42 24.2063Z" fill="black"/>
<path d="M224.292 22.4604C224.292 29.3627 228.443 33.6258 234.874 33.6258C241.591 33.6258 245.499 29.1597 245.499 22.4604C245.499 15.3145 241.102 11.2949 234.874 11.2949C228.443 11.2949 224.292 15.5175 224.292 22.4604ZM229.42 24.2063V20.8364C229.42 17.507 231.577 15.4362 234.874 15.4362C238.09 15.4362 240.329 17.4663 240.329 20.8364V24.2063C240.329 27.6574 238.049 29.4844 234.874 29.4844C231.781 29.4844 229.42 27.698 229.42 24.2063Z" fill="black"/>
<path d="M247.483 40.0003H252.531V29.2002H252.857C254.037 31.7582 256.6 33.4228 260.264 33.4228C265.719 33.4228 269.097 29.4439 269.097 22.3385C269.097 15.3957 265.8 11.2949 260.264 11.2949C256.968 11.2949 254.2 12.7972 252.857 15.5175H252.531L251.92 11.7009H247.483V40.0003ZM258.474 29.322C254.892 29.322 252.531 27.0077 252.531 23.4348V21.283C252.531 17.7506 254.851 15.3957 258.515 15.3957C262.055 15.3957 263.887 17.4258 263.887 20.4709V24.2468C263.887 27.495 261.77 29.322 258.474 29.322Z" fill="black"/>
<path d="M247.483 40.0003H252.531V29.2002H252.857C254.037 31.7582 256.6 33.4228 260.264 33.4228C265.719 33.4228 269.097 29.4439 269.097 22.3385C269.097 15.3957 265.8 11.2949 260.264 11.2949C256.968 11.2949 254.2 12.7972 252.857 15.5175H252.531L251.92 11.7009H247.483V40.0003ZM258.474 29.322C254.892 29.322 252.531 27.0077 252.531 23.4348V21.283C252.531 17.7506 254.851 15.3957 258.515 15.3957C262.055 15.3957 263.887 17.4258 263.887 20.4709V24.2468C263.887 27.495 261.77 29.322 258.474 29.322Z" fill="black"/>
<path d="M271.038 8.65546H276.044V3.21484H271.038V8.65546ZM271.038 33.2195H276.044V11.7006H271.038V33.2195Z" fill="black"/>
<path d="M271.038 8.65546H276.044V3.21484H271.038V8.65546ZM271.038 33.2195H276.044V11.7006H271.038V33.2195Z" fill="black"/>
<path d="M278.713 33.2195H283.72V3.21484H278.713V33.2195Z" fill="black"/>
<path d="M278.713 33.2195H283.72V3.21484H278.713V33.2195Z" fill="black"/>
<path d="M285.696 22.4604C285.696 29.3627 289.848 33.6258 296.278 33.6258C302.995 33.6258 306.903 29.1597 306.903 22.4604C306.903 15.3145 302.506 11.2949 296.278 11.2949C289.848 11.2949 285.696 15.5175 285.696 22.4604ZM290.825 24.2063V20.8364C290.825 17.507 292.982 15.4362 296.278 15.4362C299.494 15.4362 301.733 17.4663 301.733 20.8364V24.2063C301.733 27.6574 299.453 29.4844 296.278 29.4844C293.186 29.4844 290.825 27.698 290.825 24.2063Z" fill="black"/>
<path d="M285.696 22.4604C285.696 29.3627 289.848 33.6258 296.278 33.6258C302.995 33.6258 306.903 29.1597 306.903 22.4604C306.903 15.3145 302.506 11.2949 296.278 11.2949C289.848 11.2949 285.696 15.5175 285.696 22.4604ZM290.825 24.2063V20.8364C290.825 17.507 292.982 15.4362 296.278 15.4362C299.494 15.4362 301.733 17.4663 301.733 20.8364V24.2063C301.733 27.6574 299.453 29.4844 296.278 29.4844C293.186 29.4844 290.825 27.698 290.825 24.2063Z" fill="black"/>
<path d="M315.604 15.8014H320V11.7006H315.604V4.79834H310.598V11.7006H306.731V15.8014H310.598V29.2C310.598 31.5955 311.616 33.2195 314.708 33.2195H320V29.2H315.604V15.8014Z" fill="black"/>
<path d="M315.604 15.8014H320V11.7006H315.604V4.79834H310.598V11.7006H306.731V15.8014H310.598V29.2C310.598 31.5955 311.616 33.2195 314.708 33.2195H320V29.2H315.604V15.8014Z" fill="black"/>
<path d="M15.7265 23.0244C15.7265 22.0298 16.5348 21.2236 17.5319 21.2236C18.529 21.2236 19.3372 22.0298 19.3372 23.0244V26.3435C19.3372 27.3381 18.529 28.1443 17.5319 28.1443C16.5348 28.1443 15.7265 27.3381 15.7265 26.3435V23.0244Z" fill="black"/>
<path d="M26.7828 21.2236C25.7857 21.2236 24.9775 22.0298 24.9775 23.0244V26.3435C24.9775 27.3381 25.7857 28.1443 26.7828 28.1443C27.7799 28.1443 28.5882 27.3381 28.5882 26.3435V23.0244C28.5882 22.0298 27.7799 21.2236 26.7828 21.2236Z" fill="black"/>
<path fill-rule="evenodd" clip-rule="evenodd" d="M44.4044 21.3159V26.2795C44.403 26.9203 44.0847 27.5451 43.5663 27.9238C37.4464 32.3929 29.8948 35.9879 22.2022 35.9879C13.6916 35.9879 5.17066 31.096 0.838139 27.9238C0.319736 27.5451 0.0012535 26.9203 0 26.2795V21.3159C0 20.6626 0.208151 20.0314 0.593914 19.5053L1.94548 17.6811C2.66934 16.7023 3.74582 16.4437 4.89282 16.4437C5.32576 11.5161 6.34984 8.00037 8.79763 5.42586C13.4601 0.498293 19.649 0 22.2022 0C24.7555 0 30.9443 0.498293 35.6068 5.42586C38.0518 8.00037 39.0787 11.5161 39.5116 16.4437C40.6609 16.4437 41.7327 16.6978 42.4562 17.6811L43.8078 19.5081C44.1963 20.0342 44.4044 20.6626 44.4044 21.3159ZM35.9342 19.0597C35.875 17.9292 34.9546 17.4855 33.9971 17.1717C32.9876 17.8036 31.7548 18.052 30.5752 18.052C29.3208 18.052 26.9813 17.753 25.0358 15.8153C24.5446 15.3281 24.2088 14.564 23.9812 13.7168C23.391 13.657 22.7982 13.6256 22.205 13.6228C21.6777 13.6228 21.0699 13.6532 20.4233 13.7168C20.1957 14.564 19.8599 15.3281 19.3686 15.8153C17.4259 17.753 15.0836 18.052 13.8292 18.052C12.6493 18.052 11.4134 17.8063 10.4045 17.1717C9.4501 17.4845 8.53361 17.9356 8.47292 19.0597C8.3713 21.1844 8.36246 23.3072 8.35363 25.4309C8.349 26.4968 8.3448 27.5629 8.3286 28.6297C8.33278 29.2488 8.70706 29.824 9.2722 30.0803C13.8653 32.1675 18.2086 33.2195 22.205 33.2195C26.1959 33.2195 30.5392 32.1675 35.1295 30.0803C35.6946 29.824 36.0688 29.2488 36.073 28.6297C36.1281 25.443 36.0838 22.2433 35.9315 19.0597H35.9342ZM9.32492 14.6166C10.0743 15.3641 11.4896 15.8623 13.016 15.8623C14.1817 15.8623 16.4019 15.6132 18.2336 13.7584C19.0384 12.9833 19.5379 11.0455 19.4825 9.08C19.4269 7.50207 18.9829 6.20098 18.3169 5.64731C17.5952 5.01061 15.9578 4.73378 14.1261 4.89988C12.1835 5.09366 10.5461 5.73036 9.71347 6.61622C7.90954 8.58172 8.29807 13.5646 9.32492 14.6166ZM20.6481 9.77208C20.7035 10.0766 20.7313 10.4088 20.759 10.7687C20.759 11.0178 20.759 11.267 20.7313 11.5438C21.2864 11.4884 21.7581 11.4884 22.2022 11.4884C22.6462 11.4884 23.1181 11.4884 23.6731 11.5438C23.6454 11.267 23.6454 11.0179 23.6454 10.7687C23.6731 10.4088 23.7008 10.0766 23.7564 9.77208C23.1736 9.71671 22.6463 9.68903 22.2022 9.68903C21.7581 9.68903 21.2308 9.71671 20.6481 9.77208ZM24.922 9.08C24.8664 11.0455 25.366 12.9833 26.1708 13.7584C28.0025 15.6132 30.2228 15.8623 31.3884 15.8623C32.9148 15.8623 34.3301 15.3641 35.0795 14.6166C36.1063 13.5646 36.4948 8.58172 34.691 6.61622C33.8584 5.73036 32.221 5.09366 30.2783 4.89988C28.4466 4.73378 26.8092 5.01061 26.0876 5.64731C25.4216 6.20098 24.9775 7.50207 24.922 9.08Z" fill="black"/>
</g>
</g>
</svg>
