<svg width="320" height="77" viewBox="0 0 320 77" fill="none" xmlns="http://www.w3.org/2000/svg">
<path d="M115.491 21.7172L113.433 23.7746H111.376L110.736 21.1686C110.599 20.5285 110.004 20.117 109.318 20.117H96.1508C95.3279 20.117 94.6878 20.7571 94.6878 21.4886V26.015C94.6878 26.7922 95.3279 27.3866 96.1508 27.3866H103.923V48.601H94.8707C94.0477 48.601 93.4076 49.2411 93.4076 49.9727V54.499C93.4076 55.2763 94.0477 55.8707 94.8707 55.8707H123.355C124.178 55.8707 124.818 55.2306 124.818 54.499V49.9727C124.818 49.1954 124.178 48.601 123.355 48.601H112.885V33.6046C112.885 29.3983 115.354 27.2037 120.2 27.2037H128.064C128.887 27.2037 129.527 26.5636 129.527 25.8321V20.8485C129.527 20.0713 128.887 19.4769 128.064 19.4769H123.4C119.971 19.4312 117.274 20.0713 115.491 21.7172Z" fill="#0D1525"/>
<path d="M151.016 19.4312C139.494 19.4312 133.322 25.5577 133.322 37.9938C133.322 50.4756 139.448 56.6022 150.787 56.6022C159.566 56.6022 165.235 52.9445 166.744 46.6808C166.972 45.8121 166.241 44.9891 165.326 44.9891H159.84C159.246 44.9891 158.697 45.3549 158.468 45.9035C157.508 48.601 154.765 49.8812 151.062 49.8812C145.301 49.8812 142.558 46.7265 142.192 39.3654H167.201C168.573 25.6035 162.858 19.4312 151.016 19.4312ZM142.466 33.7875C143.335 28.3924 146.032 25.8778 150.97 25.8778C156.228 25.8778 158.697 28.6668 158.834 33.7875H142.466Z" fill="#0D1525"/>
<path d="M195.502 19.4312C192.393 19.4312 190.153 20.117 188.415 21.7629L186.267 23.8204H184.301L183.569 21.1685C183.386 20.5742 182.837 20.117 182.152 20.117H178.037C177.214 20.117 176.574 20.7571 176.574 21.4886V68.3067C176.574 69.084 177.214 69.6783 178.037 69.6783H184.072C184.895 69.6783 185.535 69.0382 185.535 68.3067V58.1567L184.758 52.7159L186.769 52.2587L188.918 54.3161C190.61 55.8706 192.667 56.6479 195.731 56.6479C204.601 56.6479 209.95 50.5213 209.95 38.0395C209.904 25.5577 204.601 19.4312 195.502 19.4312ZM192.53 49.1497C188.004 49.1497 185.489 46.8179 185.489 42.383V33.6046C185.489 29.1697 187.958 26.8379 192.53 26.8379C198.063 26.8379 200.577 30.3127 200.577 37.9481C200.531 45.6749 198.063 49.1497 192.53 49.1497Z" fill="#0D1525"/>
<path d="M320 26.0153V21.4889C320 20.7117 319.36 20.1173 318.537 20.1173H302.672V11.3389C302.672 10.5617 302.032 9.96729 301.209 9.96729H295.174C294.351 9.96729 293.71 10.6074 293.71 11.3389V20.1173H284.338C283.515 20.1173 282.875 20.7574 282.875 21.4889V26.0153C282.875 26.7925 283.515 27.3869 284.338 27.3869H293.71V40.8288C293.71 51.116 298.557 55.871 308.981 55.871H317.485C318.308 55.871 318.948 55.2309 318.948 54.4994V49.973C318.948 49.1957 318.308 48.6014 317.485 48.6014H310.353C304.683 48.6014 302.672 46.3611 302.672 40.7831V27.4326H318.537C319.36 27.3869 320 26.7468 320 26.0153Z" fill="#0D1525"/>
<path d="M245.155 48.6013H235.828V7.68119C235.828 6.90394 235.188 6.30957 234.365 6.30957H216.077C215.254 6.30957 214.613 6.94966 214.613 7.68119V12.2076C214.613 12.9848 215.254 13.5792 216.077 13.5792H226.867V48.6013H214.751C213.928 48.6013 213.288 49.2414 213.288 49.9729V54.4993C213.288 55.2766 213.928 55.8709 214.751 55.8709H245.155C245.978 55.8709 246.618 55.2308 246.618 54.4993V49.9729C246.618 49.1957 245.978 48.6013 245.155 48.6013Z" fill="#0D1525"/>
<path d="M272.313 6.30957H264.083C263.26 6.30957 262.62 6.94966 262.62 7.68119V13.4877C262.62 14.265 263.26 14.8594 264.083 14.8594H272.313C273.136 14.8594 273.776 14.2193 273.776 13.4877V7.68119C273.731 6.90394 273.09 6.30957 272.313 6.30957Z" fill="#0D1525"/>
<path d="M273.41 48.6013V21.4888C273.41 20.7116 272.77 20.1172 271.947 20.1172H253.522C252.699 20.1172 252.059 20.7573 252.059 21.4888V26.0152C252.059 26.7924 252.699 27.3868 253.522 27.3868H264.449V48.6013H253.522C252.699 48.6013 252.059 49.2413 252.059 49.9729V54.4992C252.059 55.2765 252.699 55.8709 253.522 55.8709H284.612C285.435 55.8709 286.075 55.2308 286.075 54.4992V49.9729C286.075 49.1956 285.435 48.6013 284.612 48.6013H273.41Z" fill="#0D1525"/>
<path d="M31.6845 25.3293H4.75497C2.10316 25.3293 0 23.1805 0 20.5744V4.75496C0 2.10315 2.14888 0 4.75497 0H26.9296C29.5814 0 31.6845 2.14888 31.6845 4.75496V25.3293Z" fill="#F5640C"/>
<path d="M58.6141 50.6587H31.6846V25.2837H58.6141C61.2202 25.2837 63.3691 27.4326 63.3691 30.0387V45.9038C63.3691 48.5556 61.2202 50.6587 58.6141 50.6587Z" fill="#F5640C"/>
<path d="M26.9296 76.0337H4.75497C2.14888 76.0337 0 73.8849 0 71.2788V55.4137C0 52.8076 2.14888 50.6587 4.75497 50.6587H31.6845V71.2788C31.6845 73.8849 29.5357 76.0337 26.9296 76.0337Z" fill="#F5640C"/>
</svg>
