<svg width="320" height="56" viewBox="0 0 320 56" fill="none" xmlns="http://www.w3.org/2000/svg">
<g clip-path="url(#clip0_109_725)">
<path d="M28.2568 55.2892L52.9593 41.4669L28.2568 27.6445L3.55432 41.4669L28.2568 55.2892Z" fill="url(#paint0_linear_109_725)"/>
<path d="M52.9593 41.467V13.8223L28.2568 0V27.6447L52.9593 41.467Z" fill="url(#paint1_linear_109_725)"/>
<path d="M28.2568 0L3.55432 13.8223V41.467L28.2568 27.6447V0Z" fill="url(#paint2_linear_109_725)"/>
<path d="M52.9593 13.8223L28.2568 55.2893V27.6446L52.9593 13.8223Z" fill="#555555"/>
<path d="M52.9593 13.8223L28.2568 27.6446L3.55432 13.8223H52.9593Z" fill="black"/>
</g>
<path fill-rule="evenodd" clip-rule="evenodd" d="M75.1484 28.4344C75.1484 15.842 83.1507 8.79223 94.8474 8.79223H108.89V16.2929H95.2963C88.1348 16.2929 83.2664 20.3793 83.2664 28.4344C83.2664 36.4895 88.1348 40.5759 95.2963 40.5759H108.892V48.0765H94.8494C83.1507 48.0745 75.1484 40.9151 75.1484 28.4344ZM116.163 35.543V8.7963H123.997V33.9202C123.997 38.7866 126.515 40.5211 130.655 40.5211H135.352C139.439 40.5211 142.01 38.7866 142.01 33.9202V8.79427H149.789V35.5979C149.789 44.047 144.196 48.0745 136.638 48.0745H129.365C121.757 48.0745 116.159 44.0449 116.159 35.543H116.163ZM158.236 8.7963H181.457C189.404 8.7963 193.379 13.0493 193.379 19.8756C193.379 24.2403 191.307 27.7662 188.005 28.7167C191.419 29.1067 193.042 31.5703 193.042 34.5356V48.0765H185.153V36.3818C185.153 34.3102 184.536 32.856 181.741 32.856H166.127V48.0765H158.238V8.79427L158.236 8.7963ZM180.397 25.53C183.979 25.53 185.434 23.6269 185.434 20.8302C185.434 17.808 183.981 16.1893 180.289 16.1893H166.133V25.5341H180.403L180.397 25.53ZM200.37 40.6328H222.027C224.659 40.6328 226.335 39.1786 226.335 36.5464C226.335 33.8045 224.602 32.7422 221.858 32.5147L210.944 31.678C204.062 31.1743 199.363 27.7032 199.363 20.3163C199.363 12.9863 204.564 8.79223 211.392 8.79223H232.822V16.236H211.839C208.817 16.236 207.249 17.6902 207.249 20.2656C207.249 22.9486 208.929 24.0697 211.896 24.352L222.973 25.134C229.743 25.6377 234.221 29.2204 234.221 36.4367C234.221 43.3767 229.467 48.0745 222.583 48.0745H200.362V40.6328H200.37ZM238.194 28.3775C238.194 16.4553 246.81 8.12402 258.338 8.12402H258.451C269.978 8.12402 278.654 16.4614 278.654 28.3775C278.654 40.3505 269.982 48.7448 258.451 48.7448H258.338C246.814 48.7448 238.194 40.3505 238.194 28.3775ZM258.395 41.1365C265.499 41.1365 270.707 36.0995 270.707 28.4344C270.707 20.8261 265.505 15.7323 258.395 15.7323C251.343 15.7323 246.139 20.8261 246.139 28.4344C246.139 36.0995 251.343 41.1365 258.395 41.1365ZM284.859 8.7963H308.078C316.025 8.7963 320 13.0493 320 19.8756C320 24.2403 317.928 27.7662 314.628 28.7167C318.04 29.1067 319.665 31.5703 319.665 34.5356V48.0765H311.774V36.3818C311.774 34.3102 311.157 32.856 308.36 32.856H292.75V48.0765H284.859V8.79427V8.7963ZM307.02 25.53C310.602 25.53 312.057 23.6269 312.057 20.8302C312.057 17.808 310.602 16.1893 306.91 16.1893H292.754V25.5341H307.024L307.02 25.53Z" fill="black"/>
<defs>
<linearGradient id="paint0_linear_109_725" x1="28.2568" y1="27.6445" x2="28.2568" y2="55.2892" gradientUnits="userSpaceOnUse">
<stop offset="0.16" stop-opacity="0.39"/>
<stop offset="0.658" stop-opacity="0.8"/>
</linearGradient>
<linearGradient id="paint1_linear_109_725" x1="52.9593" y1="13.9076" x2="28.6178" y2="28.5887" gradientUnits="userSpaceOnUse">
<stop offset="0.182" stop-opacity="0.31"/>
<stop offset="0.715" stop-opacity="0"/>
</linearGradient>
<linearGradient id="paint2_linear_109_725" x1="28.2568" y1="-7.15742e-07" x2="4.58184" y2="42.0456" gradientUnits="userSpaceOnUse">
<stop stop-opacity="0.6"/>
<stop offset="0.667" stop-opacity="0.22"/>
</linearGradient>
<clipPath id="clip0_109_725">
<rect width="56.869" height="55.2893" fill="white"/>
</clipPath>
</defs>
</svg>
