<svg width="150" height="64" viewBox="0 0 150 64" fill="none" xmlns="http://www.w3.org/2000/svg">
<g clip-path="url(#clip0_109_973)">
<path d="M13.006 1.88232C17.9418 1.88232 22.8775 1.88232 27.9629 1.88232C27.2313 7.76715 27.2313 7.76715 26.6801 10.1987C26.5648 10.7129 26.4495 11.2271 26.3307 11.7568C26.2121 12.2743 26.0935 12.7918 25.9713 13.325C25.8502 13.8628 25.729 14.4006 25.6043 14.9546C25.3089 16.2645 25.0105 17.5739 24.7114 18.883C25.4088 18.4648 26.1062 18.0468 26.8249 17.6161C30.7516 15.3669 34.6766 15.0088 39.117 15.892C43.1759 17.1688 45.3655 19.6882 47.4947 23.2914C50.3095 29.426 49.1612 36.8961 47.0299 43.0481C44.2153 49.5703 40.2041 53.3658 33.8968 56.3988C28.3994 57.5042 23.7128 57.1311 18.8586 54.1919C18.4295 53.7604 18.0003 53.3288 17.5581 52.8842C17.4626 53.3537 17.3669 53.8232 17.2684 54.3068C15.7202 57.1348 13.2762 58.0945 10.4861 59.5455C9.69013 59.9748 9.69013 59.9748 8.87811 60.4126C7.44173 61.1842 6.00068 61.9441 4.5521 62.6923C4.10602 62.9378 3.65996 63.1834 3.20037 63.4363C1.9509 63.9999 1.9509 63.9999 0 63.9999C0.413303 59.598 1.15442 55.3668 2.09569 51.0503C2.23965 50.3794 2.38361 49.7087 2.53192 49.0175C2.99903 46.8458 3.47056 44.6748 3.94244 42.5039C4.26542 41.0082 4.5883 39.5125 4.91106 38.0168C7.5209 25.9514 10.2249 13.9089 13.006 1.88232ZM22.1101 30.6526C20.2567 33.9658 19.0356 37.934 19.509 41.7684C21.2755 43.5643 22.0555 43.7247 24.6301 43.9752C27.2197 43.8636 29.0384 43.244 31.2144 41.7684C32.9766 39.5077 33.699 37.4452 33.8155 34.5758C33.0632 32.5052 32.4633 31.1255 30.7266 29.7535C27.8332 28.9454 24.5258 28.6574 22.1101 30.6526Z" fill="black"/>
<path d="M87.7092 19.1893C91.6496 22.4178 93.758 26.0785 94.5277 31.1247C94.9393 38.0607 92.463 44.3759 88.0577 49.6436C82.333 54.9749 76.3968 57.3142 68.627 57.0824C63.4552 56.5089 58.241 55.1643 54.4381 51.4207C50.4729 46.4104 49.6683 40.8177 50.295 34.5663C52.0673 27.6549 56.2358 21.8633 62.34 18.1778C70.359 14.2179 80.0432 14.3576 87.7092 19.1893ZM65.6768 33.7878C65.0348 36.0501 64.8352 38.1636 65.2699 40.4661C66.5046 42.5288 66.5046 42.5288 68.5253 43.7438C71.0807 44.1113 72.5427 44.0034 74.8732 42.8834C76.9933 41.2825 78.0927 40.411 78.9426 37.844C79.2529 35.0635 79.3869 32.7414 78.0067 30.2644C72.9738 27.4217 68.9181 29.4859 65.6768 33.7878Z" fill="black"/>
<path d="M146.088 0C145.609 3.72803 144.883 7.37433 144.092 11.048C143.971 11.6185 143.85 12.189 143.725 12.7768C143.427 14.1713 143.129 15.5654 142.829 16.9593C145.196 16.9593 147.562 16.9593 150 16.9593C148.982 27.7628 148.982 27.7628 146.74 30.0049C145.533 30.0521 144.323 30.0596 143.115 30.0457C142.455 30.0399 141.795 30.034 141.116 30.0279C140.351 30.0166 140.351 30.0166 139.57 30.0049C139.221 31.3343 138.884 32.6666 138.552 34.0001C138.362 34.7418 138.173 35.4835 137.979 36.2476C137.608 38.527 137.754 40.1623 138.266 42.3983C139.772 42.8288 141.278 43.2593 142.829 43.7028C142.829 47.5775 142.829 51.4521 142.829 55.4439C138.299 57.7105 132.633 57.4082 127.796 55.974C125.253 54.9476 123.595 53.7968 121.97 51.5303C120.034 46.6831 121.04 42.3865 122.214 37.4655C122.375 36.7453 122.537 36.0252 122.703 35.2831C123.099 33.5209 123.507 31.762 123.925 30.0049C121.989 29.7897 120.053 29.5744 118.058 29.3527C118.477 27.4087 118.898 25.4656 119.321 23.5229C119.44 22.9684 119.559 22.4138 119.682 21.8425C119.797 21.3149 119.913 20.7873 120.032 20.2436C120.138 19.7552 120.244 19.2668 120.353 18.7635C120.666 17.6116 120.666 17.6116 121.318 16.9593C122.417 16.9123 123.518 16.9046 124.618 16.9185C125.217 16.9245 125.816 16.9303 126.433 16.9364C126.897 16.944 127.359 16.9516 127.836 16.9593C127.868 16.5885 127.9 16.2177 127.933 15.8356C127.982 15.3321 128.031 14.8284 128.081 14.3094C128.126 13.8175 128.172 13.3257 128.218 12.8189C128.57 10.5656 128.938 8.65145 129.792 6.52282C131.301 5.45295 132.45 4.78266 134.111 4.07676C134.522 3.88794 134.932 3.69913 135.355 3.50458C136.535 2.96961 137.726 2.46244 138.918 1.95684C139.477 1.71889 140.036 1.48093 140.612 1.23577C142.524 0.474031 144.016 0 146.088 0Z" fill="black"/>
<path d="M105.618 1.88232C110.55 1.88232 115.482 1.88232 120.564 1.88232C119.749 7.50846 118.753 13.0305 117.5 18.5735C117.333 19.3217 117.167 20.0698 116.995 20.8405C116.468 23.2049 115.937 25.5684 115.406 27.9319C114.879 30.2885 114.353 32.6455 113.827 35.0023C113.49 36.5087 113.153 38.0149 112.814 39.521C111.793 44.0732 110.819 48.6299 109.932 53.2108C109.517 54.7151 109.517 54.7151 108.218 56.0197C106.817 56.1678 106.817 56.1678 105.106 56.1471C104.494 56.1429 103.883 56.1387 103.253 56.1343C102.613 56.1234 101.973 56.1125 101.313 56.1012C100.346 56.0924 100.346 56.0924 99.3591 56.0834C97.7631 56.068 96.1676 56.0455 94.5719 56.0197C94.9314 50.8159 95.9216 45.8447 97.0645 40.763C97.2465 39.9397 97.4284 39.1164 97.6159 38.2682C98.0968 36.0922 98.5821 33.917 99.0685 31.7422C99.557 29.5546 100.042 27.366 100.527 25.1775C101.075 22.7009 101.625 20.2244 102.177 17.7486C103.354 12.466 104.495 7.17669 105.618 1.88232Z" fill="black"/>
</g>
<defs>
<clipPath id="clip0_109_973">
<rect width="150" height="64" fill="white"/>
</clipPath>
</defs>
</svg>
