<svg width="320" height="86" viewBox="0 0 320 86" fill="none" xmlns="http://www.w3.org/2000/svg">
<mask id="mask0_109_753" style="mask-type:luminance" maskUnits="userSpaceOnUse" x="0" y="0" width="320" height="86">
<path d="M320 0H0V86H320V0Z" fill="white"/>
</mask>
<g mask="url(#mask0_109_753)">
<mask id="mask1_109_753" style="mask-type:luminance" maskUnits="userSpaceOnUse" x="0" y="0" width="320" height="86">
<path d="M320 0H0V86H320V0Z" fill="white"/>
</mask>
<g mask="url(#mask1_109_753)">
<g filter="url(#filter0_i_109_753)">
<path d="M11.6445 46.4778L7.43559 34.6473C7.01888 33.4759 7.86257 32.2334 9.06219 32.2724C30.8545 32.9785 42.0638 40.4476 41.0434 62.9167C37.4125 47.5622 19.9979 46.4778 11.6445 46.4778Z" fill="black"/>
</g>
<g filter="url(#filter1_i_109_753)">
<path d="M6.01638 27.2051L1.61049 15.6772C1.16046 14.4997 2.00386 13.2222 3.22152 13.2345C25.3027 13.4551 40.8568 14.3214 40.8568 43.4578C37.2259 28.1033 14.3698 27.2051 6.01638 27.2051Z" fill="black"/>
</g>
<g filter="url(#filter2_i_109_753)">
<path d="M17.4158 66.3672L12.939 53.8151C12.5235 52.6501 13.3584 51.4109 14.5521 51.4496C32.5015 52.0307 41.5068 59.2759 40.4938 81.5843C36.863 66.2296 25.8295 66.3672 17.4158 66.3672Z" fill="black"/>
</g>
<path d="M75.6374 64.5002L64.0829 30.6053L70.7961 30.5408L79.0586 55.9135L77.5739 55.7844L86.5465 35.9639H90.5485L99.5856 55.8489L97.8427 55.978L106.17 30.6053H112.883L101.457 64.5002H96.8744L87.4502 42.9365L88.9347 43.1303L80.156 64.5002H75.6374ZM118.099 64.5002V30.6053H124.747V64.5002H118.099ZM121.326 23.1162C119.906 23.1162 118.809 22.7503 118.034 22.0186C117.26 21.2869 116.872 20.2539 116.872 18.9197C116.872 17.6715 117.26 16.66 118.034 15.8852C118.852 15.1105 119.949 14.7231 121.326 14.7231C122.747 14.7231 123.844 15.089 124.618 15.8206C125.394 16.5524 125.781 17.5853 125.781 18.9197C125.781 20.1678 125.372 21.1793 124.553 21.954C123.779 22.7287 122.703 23.1162 121.326 23.1162ZM129.803 64.5002V30.6053H136.452V37.578L135.29 38.3527C135.72 36.8463 136.559 35.4689 137.808 34.2207C139.056 32.9295 140.54 31.8965 142.261 31.1218C143.983 30.304 145.747 29.8952 147.554 29.8952C150.136 29.8952 152.288 30.4117 154.009 31.4446C155.731 32.4345 157.022 33.9625 157.882 36.0284C158.743 38.0945 159.173 40.6984 159.173 43.8405V64.5002H152.525V44.2924C152.525 42.3555 152.266 40.7629 151.75 39.5148C151.234 38.2236 150.438 37.2981 149.362 36.7387C148.286 36.136 146.952 35.8778 145.359 35.9639C144.068 35.9639 142.885 36.1792 141.809 36.6095C140.734 36.9969 139.786 37.5564 138.969 38.2881C138.195 39.0199 137.571 39.8807 137.097 40.8706C136.667 41.8175 136.452 42.8505 136.452 43.9696V64.5002H133.16C132.6 64.5002 132.04 64.5002 131.481 64.5002C130.922 64.5002 130.362 64.5002 129.803 64.5002ZM180.393 65.1458C177.295 65.1458 174.518 64.3925 172.066 62.8861C169.656 61.3366 167.741 59.2492 166.321 56.6236C164.9 53.9551 164.191 50.9207 164.191 47.5204C164.191 44.1202 164.879 41.1073 166.256 38.4819C167.676 35.8133 169.591 33.7257 172.001 32.2194C174.411 30.6699 177.143 29.8952 180.199 29.8952C181.877 29.8952 183.491 30.1749 185.041 30.7344C186.632 31.2509 188.053 31.9826 189.301 32.9295C190.549 33.8333 191.516 34.8448 192.205 35.9639C192.937 37.0399 193.303 38.1375 193.303 39.2566L191.366 39.3857V16.7246H198.015V64.5002H191.366V56.43H192.657C192.657 57.4629 192.313 58.4959 191.625 59.5289C190.936 60.5189 190.01 61.4442 188.849 62.3051C187.73 63.1659 186.417 63.8546 184.911 64.371C183.448 64.8875 181.942 65.1458 180.393 65.1458ZM181.296 59.3998C183.318 59.3998 185.105 58.8833 186.654 57.8503C188.203 56.8173 189.408 55.4185 190.269 53.6538C191.173 51.8461 191.625 49.8016 191.625 47.5204C191.625 45.2392 191.173 43.2164 190.269 41.4517C189.408 39.644 188.203 38.2236 186.654 37.1906C185.105 36.1575 183.318 35.6411 181.296 35.6411C179.275 35.6411 177.488 36.1575 175.939 37.1906C174.389 38.2236 173.163 39.644 172.259 41.4517C171.399 43.2164 170.968 45.2392 170.968 47.5204C170.968 49.8016 171.399 51.8461 172.259 53.6538C173.163 55.4185 174.389 56.8173 175.939 57.8503C177.488 58.8833 179.275 59.3998 181.296 59.3998ZM216.528 65.1458C213.687 65.1458 211.127 64.6508 208.845 63.6608C206.565 62.671 204.672 61.2075 203.166 59.2707L207.684 55.397C208.975 56.9035 210.373 58.0009 211.879 58.6897C213.429 59.3353 215.172 59.658 217.108 59.658C217.883 59.658 218.593 59.5719 219.238 59.3998C219.927 59.1845 220.508 58.8833 220.981 58.4959C221.497 58.1086 221.885 57.6567 222.144 57.1401C222.401 56.5806 222.531 55.978 222.531 55.3324C222.531 54.2134 222.122 53.3095 221.304 52.6208C220.873 52.3196 220.186 51.9967 219.238 51.6524C218.335 51.2651 217.152 50.8777 215.689 50.4902C213.192 49.8446 211.148 49.113 209.556 48.2951C207.963 47.4774 206.737 46.5521 205.876 45.5191C205.231 44.7012 204.757 43.8189 204.457 42.872C204.155 41.882 204.005 40.8061 204.005 39.644C204.005 38.2236 204.305 36.9324 204.909 35.7702C205.554 34.5651 206.415 33.5321 207.491 32.6712C208.609 31.7674 209.9 31.0788 211.364 30.6053C212.87 30.1318 214.461 29.8952 216.14 29.8952C217.732 29.8952 219.303 30.1103 220.853 30.5408C222.444 30.9712 223.907 31.5953 225.242 32.413C226.576 33.2309 227.695 34.1992 228.598 35.3183L224.79 39.5148C223.972 38.697 223.068 37.9869 222.079 37.3843C221.132 36.7387 220.164 36.2437 219.174 35.8993C218.184 35.5551 217.28 35.3828 216.463 35.3828C215.559 35.3828 214.742 35.4689 214.01 35.6411C213.279 35.8133 212.655 36.0715 212.138 36.4158C211.664 36.7602 211.299 37.1906 211.04 37.7071C210.782 38.2236 210.653 38.8046 210.653 39.4502C210.697 40.0098 210.825 40.5478 211.04 41.0643C211.299 41.5378 211.643 41.9467 212.073 42.2909C212.547 42.6353 213.257 43.0011 214.203 43.3885C215.15 43.7759 216.355 44.1417 217.819 44.4861C219.969 45.0456 221.734 45.6697 223.111 46.3583C224.531 47.0039 225.65 47.7572 226.468 48.618C227.328 49.4357 227.932 50.3827 228.275 51.4587C228.619 52.5347 228.791 53.7399 228.791 55.0741C228.791 57.011 228.232 58.7542 227.113 60.3036C226.037 61.8101 224.574 62.9937 222.724 63.8546C220.873 64.7154 218.808 65.1458 216.528 65.1458ZM246.06 65.1458C243.651 65.1458 241.541 64.5863 239.734 63.4672C237.97 62.3481 236.592 60.7771 235.603 58.7542C234.657 56.7312 234.183 54.3209 234.183 51.5233V30.6053H240.832V49.7155C240.832 51.6954 241.132 53.417 241.736 54.8805C242.38 56.3008 243.284 57.3983 244.446 58.1732C245.651 58.9479 247.093 59.3353 248.771 59.3353C250.019 59.3353 251.16 59.1415 252.192 58.7542C253.225 58.3238 254.107 57.7427 254.839 57.011C255.613 56.2793 256.216 55.397 256.646 54.364C257.076 53.331 257.292 52.2119 257.292 51.0068V30.6053H263.94V64.5002H257.292V57.3983L258.454 56.6236C257.937 58.2162 257.055 59.658 255.807 60.9492C254.602 62.2405 253.16 63.2734 251.482 64.0482C249.804 64.7799 247.996 65.1458 246.06 65.1458ZM269.392 64.5002V30.6053H276.106V41.2579L275.46 38.6755C275.934 37.0399 276.73 35.5551 277.849 34.2207C279.011 32.8865 280.324 31.832 281.787 31.0573C283.293 30.2825 284.842 29.8952 286.434 29.8952C287.166 29.8952 287.855 29.9597 288.5 30.0888C289.188 30.2179 289.726 30.3685 290.113 30.5408L288.37 37.7716C287.855 37.5564 287.273 37.3843 286.627 37.2551C286.025 37.083 285.423 36.9969 284.821 36.9969C283.658 36.9969 282.539 37.2336 281.463 37.7071C280.431 38.1375 279.505 38.7616 278.688 39.5793C277.914 40.3541 277.29 41.2794 276.816 42.3555C276.343 43.3885 276.106 44.5291 276.106 45.7773V64.5002H269.392ZM300.398 64.5002V26.7961C300.398 24.8593 300.828 23.1377 301.689 21.6312C302.549 20.1248 303.733 18.9412 305.238 18.0803C306.746 17.2195 308.487 16.7891 310.467 16.7891C311.845 16.7891 313.136 17.0473 314.34 17.5638C315.546 18.0803 316.514 18.7691 317.246 19.6298L314.986 24.7302C314.427 24.2137 313.803 23.8048 313.114 23.5036C312.469 23.1592 311.845 22.9871 311.242 22.9871C310.339 22.9871 309.563 23.1377 308.919 23.439C308.316 23.6972 307.864 24.1276 307.563 24.7302C307.261 25.2897 307.111 25.9784 307.111 26.7961V64.5002H303.755C303.195 64.5002 302.636 64.5002 302.076 64.5002C301.517 64.5002 300.958 64.5002 300.398 64.5002ZM294.975 37.3198V31.1864H315.115V37.3198H294.975Z" fill="black"/>
</g>
</g>
<defs>
<filter id="filter0_i_109_753" x="7.32776" y="32.2715" width="33.7796" height="36.3729" filterUnits="userSpaceOnUse" color-interpolation-filters="sRGB">
<feFlood flood-opacity="0" result="BackgroundImageFix"/>
<feBlend mode="normal" in="SourceGraphic" in2="BackgroundImageFix" result="shape"/>
<feColorMatrix in="SourceAlpha" type="matrix" values="0 0 0 0 0 0 0 0 0 0 0 0 0 0 0 0 0 0 127 0" result="hardAlpha"/>
<feOffset dy="5.72789"/>
<feGaussianBlur stdDeviation="2.86395"/>
<feComposite in2="hardAlpha" operator="arithmetic" k2="-1" k3="1"/>
<feColorMatrix type="matrix" values="0 0 0 0 0 0 0 0 0 0 0 0 0 0 0 0 0 0 0.25 0"/>
<feBlend mode="normal" in2="shape" result="effect1_innerShadow_109_753"/>
</filter>
<filter id="filter1_i_109_753" x="1.4877" y="13.2344" width="39.3691" height="35.9515" filterUnits="userSpaceOnUse" color-interpolation-filters="sRGB">
<feFlood flood-opacity="0" result="BackgroundImageFix"/>
<feBlend mode="normal" in="SourceGraphic" in2="BackgroundImageFix" result="shape"/>
<feColorMatrix in="SourceAlpha" type="matrix" values="0 0 0 0 0 0 0 0 0 0 0 0 0 0 0 0 0 0 127 0" result="hardAlpha"/>
<feOffset dy="5.72789"/>
<feGaussianBlur stdDeviation="2.86395"/>
<feComposite in2="hardAlpha" operator="arithmetic" k2="-1" k3="1"/>
<feColorMatrix type="matrix" values="0 0 0 0 0 0 0 0 0 0 0 0 0 0 0 0 0 0 0.25 0"/>
<feBlend mode="normal" in2="shape" result="effect1_innerShadow_109_753"/>
</filter>
<filter id="filter2_i_109_753" x="12.8309" y="51.4487" width="27.7398" height="35.8636" filterUnits="userSpaceOnUse" color-interpolation-filters="sRGB">
<feFlood flood-opacity="0" result="BackgroundImageFix"/>
<feBlend mode="normal" in="SourceGraphic" in2="BackgroundImageFix" result="shape"/>
<feColorMatrix in="SourceAlpha" type="matrix" values="0 0 0 0 0 0 0 0 0 0 0 0 0 0 0 0 0 0 127 0" result="hardAlpha"/>
<feOffset dy="5.72789"/>
<feGaussianBlur stdDeviation="2.86395"/>
<feComposite in2="hardAlpha" operator="arithmetic" k2="-1" k3="1"/>
<feColorMatrix type="matrix" values="0 0 0 0 0 0 0 0 0 0 0 0 0 0 0 0 0 0 0.25 0"/>
<feBlend mode="normal" in2="shape" result="effect1_innerShadow_109_753"/>
</filter>
</defs>
</svg>
